<svg xmlns="http://www.w3.org/2000/svg" viewBox="0 0 32.501 32">
  <path id="github" d="M19.251,3A16.251,16.251,0,0,0,3,19.251a16.817,16.817,0,0,0,.6,4.382A16.151,16.151,0,0,0,15.312,35a2.371,2.371,0,0,1-.125-.79V31.433H13.146a2.827,2.827,0,0,1-2.58-1.366c-.532-.987-.624-2.5-1.943-3.421-.391-.307-.093-.658.358-.611a4.258,4.258,0,0,1,2.174,1.655,2.088,2.088,0,0,0,2.161,1.041,15.526,15.526,0,0,0,2.29-.164,5.1,5.1,0,0,1,2.15-2.657c-5.411-.557-7.994-3.249-7.994-6.9a6.642,6.642,0,0,1,1.809-4.378c-.374-1.273-.844-3.869.144-4.858a5.656,5.656,0,0,1,4.26,2.006,12.288,12.288,0,0,1,7.9,0,5.653,5.653,0,0,1,4.263-2.008c.991.99.516,3.6.138,4.867a6.639,6.639,0,0,1,1.8,4.369c0,3.652-2.578,6.343-7.982,6.9a5.7,5.7,0,0,1,2.572,4.6v3.7a2.383,2.383,0,0,1-.047.363A16.242,16.242,0,0,0,19.251,3Z" transform="translate(-3 -3)" fill="#000"/>
</svg>
