<svg xmlns="http://www.w3.org/2000/svg" viewBox="0 0 14 14">
  <path id="qr" data-name="qr" d="M12.333,17H10.778V15.444h1.556Zm-1.556-5.444H9.222v3.889h1.556ZM17,10H15.444v3.111H17ZM15.444,8.444H13.889V10h1.556ZM6.111,10H4.556v1.556H6.111ZM4.556,8.444H3V10H4.556ZM10,4.556h1.556V3H10ZM4.167,4.167V6.5H6.5V4.167Zm3.5,3.5H3V3H7.667ZM4.167,13.5v2.333H6.5V13.5Zm3.5,3.5H3V12.333H7.667ZM13.5,4.167V6.5h2.333V4.167Zm3.5,3.5H12.333V3H17Zm-1.556,7.778V13.111H12.333v1.556h1.556V17H17V15.444ZM13.889,10H10.778v1.556h3.111ZM10.778,8.444H6.111V10H7.667v1.556H9.222V10h1.556Zm.778-.778V6.111H10V4.556H8.444V7.667ZM5.917,4.75H4.75V5.917H5.917Zm0,9.333H4.75V15.25H5.917ZM15.25,4.75H14.083V5.917H15.25Z" transform="translate(-3 -3)" fill="#000"/>
</svg>
