<svg id="f0f93491-a2de-4384-948d-c02eb24bcf5f" data-name="Logo Ant1mas" xmlns="http://www.w3.org/2000/svg" viewBox="0 0 1821.9741 861.9662" fill="#000"><path d="M34.9481,580.5388l112.4-264.8h37.6l112.4,264.8h-33.2l-32.4-76.8h-131.2l-32.4,76.8Zm77.2-104.4h108l-54-129.2Z" transform="translate(-34.9481 -17.1456)"/><path d="M330.9427,580.5388v-264.8h34.8l163.6,222.8v-222.8h30v264.8h-34.8l-163.6-223.6v223.6Z" transform="translate(-34.9481 -17.1456)"/><path d="M689.7371,580.5388v-236.4h-92.4v-28.4h214.8v28.4h-92.4v236.4Z" transform="translate(-34.9481 -17.1456)"/><path d="M927.7323,580.5388v-236h-56v-28.8h86v264.8Z" transform="translate(-34.9481 -17.1456)"/><path d="M1070.1273,580.5388v-264.8h34.8l94.8,125.6,93.2-125.6h34.8v264.8h-30v-219.2l-98,126-99.6-126v219.2Z" transform="translate(-34.9481 -17.1456)"/><path d="M1361.3275,580.5388l112.3994-264.8h37.6006l112.3994,264.8h-33.1992l-32.4-76.8h-131.2l-32.3994,76.8Zm77.2-104.4h108l-54-129.2Z" transform="translate(-34.9481 -17.1456)"/><path d="M1752.1224,583.739q-39.2066,0-63.6006-10.6006-24.4027-10.5937-36.6-29.3994a90.5743,90.5743,0,0,1-14.2-42.4h31.2q1.2,19.2,12.8,31,11.5973,11.8038,30.6006,17.4a147.274,147.274,0,0,0,41.8,5.6q33.5991,0,53.2-11.8,19.5938-11.7935,19.6-35,0-13.9965-9.8-22.6-9.8071-8.5963-26-14.2-16.2-5.5971-35.4-10.2-19.2-4.5937-38.6-9.8a192.5206,192.5206,0,0,1-35.6006-13.2q-16.2-7.9965-26-20.6-9.8057-12.6-9.8-32.2,0-32.4,25-52.8,24.9946-20.4,74.6006-20.4,35.1928,0,58,10.6,22.7988,10.6034,34.1992,27.8a74.3679,74.3679,0,0,1,12.6006,37.2h-30.8q-2.4009-19.9973-20-33.8-17.6074-13.8-54-13.8-22.4062,0-36.4,4.4-14.0068,4.4063-21.4,11.4-7.4062,7.0035-10,14.6a44.4388,44.4388,0,0,0-2.6,14.4q0,13.2,9.8,21.4,9.797,8.2032,26,13.6a368.7075,368.7075,0,0,0,35.8,9.8q19.5938,4.4063,39,9.8a193.949,193.949,0,0,1,35.6006,13.6q16.2,8.2032,26,21,9.7968,12.8064,9.8,32.8,0,36.8057-28,56.6Q1800.9189,583.7385,1752.1224,583.739Z" transform="translate(-34.9481 -17.1456)"/><g id="f6b71d7a-4fc5-467c-bc4f-2a0bfff5ff3a" data-name="line bottom"><rect id="e2c68280-770e-431a-b836-d2a6f4aafc75" data-name="long 2" x="892.7823" y="761.2992" width="30.003" height="100.667"/><rect id="ff594a5a-3cb5-4520-84dc-7135d2ebc52a" data-name="long 1" x="892.7823" y="643.8233" width="30.003" height="100.667"/><rect id="ebb6c9d1-c9c5-45dd-b033-10d16b9f052b" data-name="short" x="892.7823" y="597.0113" width="30.003" height="30.003"/></g><g id="bb4b8c8c-87e5-4671-924e-7e9535cbc7f2" data-name="line top"><rect id="a410e3a3-749f-43c1-96e8-e03e19f5f788" data-name="long 2" x="892.7823" y="164.288" width="30.003" height="100.667"/><rect id="a7f7acf6-d942-417c-927c-2c5eab004058" data-name="long 1" x="892.7823" y="46.812" width="30.003" height="100.667"/><rect id="f2146ca9-6208-4283-b7f7-a142eeb7ee9a" data-name="short" x="892.7823" width="30.003" height="30.003"/></g></svg>