<?xml version="1.0" standalone="no"?>
<!DOCTYPE svg PUBLIC "-//W3C//DTD SVG 20010904//EN"
 "http://www.w3.org/TR/2001/REC-SVG-20010904/DTD/svg10.dtd">
<svg version="1.0" xmlns="http://www.w3.org/2000/svg"
 width="700.000000pt" height="700.000000pt" viewBox="0 0 700.000000 700.000000"
 preserveAspectRatio="xMidYMid meet">
<metadata>
Created by potrace 1.14, written by Peter Selinger 2001-2017
</metadata>
<g transform="translate(0.000000,700.000000) scale(0.100000,-0.100000)"
fill="#000000" stroke="none">
<path d="M1040 5681 c-72 -22 -118 -62 -146 -126 -17 -38 -18 -165 -19 -2045
-1 -1840 0 -2009 15 -2050 34 -94 105 -144 207 -144 82 0 143 37 186 112 l30
54 -1 2016 c0 1819 -2 2021 -16 2054 -19 44 -62 90 -105 113 -37 18 -115 27
-151 16z"/>
<path d="M2782 4581 c-67 -20 -128 -78 -145 -137 -9 -30 -12 -131 -12 -342 0
-197 -3 -298 -10 -296 -5 1 -129 41 -274 89 -288 94 -327 102 -387 86 -49 -13
-116 -69 -138 -115 -48 -102 -7 -233 89 -284 17 -8 155 -56 308 -106 l278 -91
-87 -120 c-48 -66 -118 -162 -156 -213 -112 -150 -130 -184 -134 -247 -4 -72
21 -130 75 -177 49 -42 94 -57 157 -52 102 8 115 21 368 372 l129 180 165
-227 c184 -253 208 -283 254 -307 48 -25 143 -23 195 4 99 51 143 171 103 277
-7 17 -185 272 -199 285 -3 3 -26 34 -51 70 -24 36 -51 73 -60 82 -8 9 -23 30
-32 46 l-17 29 272 87 c150 49 288 97 308 107 114 58 146 218 64 325 -35 46
-83 72 -146 80 -49 5 -75 -1 -289 -71 -129 -42 -259 -85 -287 -96 l-53 -19 -4
23 c-3 12 -4 148 -4 302 1 307 -2 332 -55 391 -60 69 -139 92 -225 65z"/>
<path d="M5416 4585 c-58 -15 -113 -58 -140 -111 -20 -36 -21 -60 -26 -355
l-5 -316 -270 89 c-148 49 -295 91 -325 94 -163 16 -284 -170 -205 -315 35
-63 77 -92 190 -129 50 -16 176 -58 280 -92 105 -34 192 -64 194 -66 3 -2 -29
-52 -52 -79 -33 -39 -290 -401 -303 -426 -33 -65 -14 -178 39 -233 45 -46 90
-67 151 -71 84 -4 152 34 210 118 85 123 309 427 315 427 3 0 26 -29 51 -63
25 -34 48 -66 53 -72 4 -5 60 -82 123 -170 139 -192 139 -192 188 -217 107
-55 237 -12 291 95 45 92 33 164 -48 273 -24 32 -92 127 -152 209 -59 83 -118
164 -131 180 l-22 31 92 29 c384 121 498 163 532 196 52 50 73 101 69 168 -3
66 -20 104 -66 149 -45 44 -108 66 -167 59 -26 -4 -168 -46 -317 -95 -148 -49
-271 -88 -273 -87 -2 2 -4 144 -5 316 l-2 314 -28 48 c-51 86 -146 126 -241
102z"/>
</g>
</svg>
